<?xml version="1.0" encoding="UTF-8"?>
<svg id="a" xmlns="http://www.w3.org/2000/svg" viewBox="0 0 1132 310">
  <style>
    @keyframes blinkTextCursor {
      0% {
        stroke: #474747;
      }
      50% {
        stroke: transparent;
      }
      100% {
        stroke: #474747;
      }
    }

    #text-cursor {
      animation-name: blinkTextCursor;
      animation-duration: 1.2s;
      animation-iteration-count: infinite;
      animation-timing-function: ease-in-out;
    }
  </style>
  <path
    d="M1082,20c16.54,0,30,13.46,30,30v210c0,16.54-13.46,30-30,30H50c-16.54,0-30-13.46-30-30V50c0-16.54,13.46-30,30-30H1082m0-20H50C22.39,0,0,22.39,0,50v210c0,27.61,22.39,50,50,50H1082c27.61,0,50-22.39,50-50V50c0-27.61-22.39-50-50-50h0Z"
    style="fill: #494949;"
  />
  <g>
    <path
      d="M183.54,89.84V220.01h-35.15l-.05-87.88-13.99,87.88h-24.93l-14.76-85.87-.05,85.87H59.47V89.84h52.03c1.54,7.83,3.13,17.05,4.77,27.67l5.71,33.11,9.24-60.79h52.32Z"
      style="fill: #494949;"
    />
    <path
      d="M291.57,166.06c0,13.08-.37,22.34-1.1,27.78-.73,5.44-3.03,10.41-6.88,14.92-3.85,4.5-9.06,7.96-15.62,10.37-6.56,2.41-14.2,3.62-22.92,3.62s-15.71-1.14-22.3-3.42c-6.59-2.28-11.89-5.69-15.9-10.25-4.01-4.56-6.4-9.51-7.16-14.88-.76-5.36-1.15-14.74-1.15-28.14v-22.27c0-13.08,.37-22.34,1.1-27.78,.73-5.44,3.02-10.41,6.88-14.92,3.85-4.5,9.06-7.96,15.62-10.37,6.56-2.41,14.2-3.62,22.92-3.62s15.71,1.14,22.3,3.42c6.59,2.28,11.89,5.7,15.9,10.25,4.01,4.56,6.4,9.52,7.16,14.88,.76,5.36,1.15,14.74,1.15,28.14v22.27Zm-40.21-42.78c0-6.06-.4-9.93-1.19-11.62-.8-1.69-2.44-2.53-4.92-2.53-2.1,0-3.71,.68-4.82,2.05-1.11,1.37-1.67,5.4-1.67,12.1v60.79c0,7.56,.37,12.22,1.1,13.99,.73,1.77,2.44,2.65,5.11,2.65s4.49-1.02,5.25-3.06c.76-2.04,1.15-6.89,1.15-14.55v-59.82Z"
      style="fill: #494949;"
    />
    <path
      d="M396.35,89.84V220.01h-35.25l-20.92-59.18v59.18h-33.62V89.84h33.62l22.54,58.61v-58.61h33.62Z"
      style="fill: #494949;"
    />
    <path
      d="M482,89.84l23,130.17h-41.1l-2.16-23.4h-14.38l-2.42,23.4h-41.57l20.51-130.17h58.12Zm-21.31,83.7c-2.04-14.74-4.08-32.97-6.12-54.67-4.1,24.93-6.67,43.15-7.72,54.67h13.84Z"
      style="fill: #494949;"
    />
    <path
      d="M605.72,146.52h-40.21v-22.62c0-6.58-.43-10.68-1.29-12.32-.86-1.63-2.76-2.45-5.68-2.45-3.31,0-5.41,.99-6.3,2.97-.89,1.98-1.34,6.27-1.34,12.86v60.46c0,6.33,.45,10.45,1.34,12.38,.89,1.93,2.9,2.89,6.02,2.89s4.95-.97,5.88-2.9c.92-1.94,1.38-6.48,1.38-13.62v-16.36h40.21v5.07c0,13.47-1.13,23.03-3.39,28.67s-7.26,10.58-15,14.82c-7.74,4.24-17.27,6.36-28.61,6.36s-21.49-1.8-29.13-5.39-12.7-8.56-15.19-14.92-3.73-15.91-3.73-28.66v-38.03c0-9.38,.38-16.42,1.15-21.11,.76-4.69,3.04-9.21,6.83-13.55,3.79-4.34,9.04-7.76,15.76-10.25,6.72-2.49,14.44-3.74,23.16-3.74,11.84,0,21.62,1.93,29.32,5.78,7.71,3.85,12.77,8.66,15.19,14.41s3.63,14.71,3.63,26.86v12.37Z"
      style="fill: #494949;"
    />
    <path
      d="M712.03,166.06c0,13.08-.37,22.34-1.1,27.78-.73,5.44-3.02,10.41-6.88,14.92-3.85,4.5-9.06,7.96-15.62,10.37-6.56,2.41-14.2,3.62-22.92,3.62s-15.71-1.14-22.3-3.42c-6.59-2.28-11.89-5.69-15.9-10.25-4.01-4.56-6.4-9.51-7.16-14.88-.76-5.36-1.15-14.74-1.15-28.14v-22.27c0-13.08,.37-22.34,1.1-27.78,.73-5.44,3.02-10.41,6.88-14.92,3.85-4.5,9.06-7.96,15.62-10.37,6.56-2.41,14.2-3.62,22.92-3.62,8.28,0,15.71,1.14,22.3,3.42,6.59,2.28,11.89,5.7,15.9,10.25,4.01,4.56,6.4,9.52,7.16,14.88,.76,5.36,1.15,14.74,1.15,28.14v22.27Zm-40.21-42.78c0-6.06-.4-9.93-1.19-11.62-.8-1.69-2.44-2.53-4.92-2.53-2.1,0-3.71,.68-4.82,2.05-1.12,1.37-1.67,5.4-1.67,12.1v60.79c0,7.56,.37,12.22,1.1,13.99,.73,1.77,2.44,2.65,5.11,2.65s4.49-1.02,5.25-3.06c.76-2.04,1.15-6.89,1.15-14.55v-59.82Z"
      style="fill: #494949;"
    />
  </g>
  <path
    d="M888.97,269.49c-4.69,0-8.94-1.09-12.72-3.27-6.83-3.94-11.35-11.01-13.44-21.01-1.84-8.79-1.72-19.63,.33-32.22,4.11-25.16,15.61-55,32.37-84.03,16.76-29.03,36.86-53.9,56.59-70.05,9.87-8.08,19.2-13.59,27.74-16.4,9.7-3.19,18.08-2.81,24.91,1.14,6.83,3.94,11.35,11.01,13.44,21.01,1.84,8.79,1.72,19.63-.33,32.22-4.11,25.16-15.61,55-32.37,84.03-16.76,29.03-36.86,53.9-56.59,70.05-9.87,8.08-19.2,13.59-27.74,16.4-4.33,1.43-8.41,2.14-12.19,2.14Zm103.01-218.31c-2.63,0-5.56,.53-8.77,1.59-7.17,2.36-15.56,7.37-24.27,14.5-18.75,15.34-37.95,39.16-54.08,67.09-16.12,27.93-27.15,56.47-31.06,80.38-1.82,11.11-1.96,20.89-.42,28.27,1.43,6.86,4.22,11.53,8.27,13.87s9.49,2.42,16.15,.23c7.17-2.36,15.56-7.37,24.27-14.5,18.75-15.34,37.95-39.16,54.08-67.09,16.12-27.93,27.16-56.47,31.06-80.38,1.82-11.11,1.96-20.89,.42-28.27-1.43-6.86-4.22-11.53-8.27-13.87-2.1-1.21-4.56-1.82-7.37-1.82Z"
    style="fill: #00bff3;"
  />
  <path
    d="M940.5,206.88c-33.52,0-65.11-4.97-88.96-13.98-11.93-4.51-21.37-9.83-28.07-15.82-7.61-6.81-11.47-14.26-11.47-22.14s3.86-15.34,11.47-22.14c6.7-5.99,16.14-11.31,28.07-15.82,23.85-9.02,55.44-13.98,88.96-13.98s65.11,4.97,88.96,13.98c11.93,4.51,21.37,9.83,28.07,15.82,7.61,6.81,11.47,14.26,11.47,22.14s-3.86,15.34-11.47,22.14c-6.7,5.99-16.14,11.31-28.07,15.82-23.85,9.02-55.44,13.98-88.96,13.98Zm0-93.1c-32.25,0-62.48,4.72-85.14,13.29-10.53,3.98-19.07,8.75-24.69,13.77-5.23,4.67-7.87,9.41-7.87,14.1s2.65,9.43,7.87,14.1c5.62,5.03,14.16,9.79,24.69,13.77,22.66,8.57,52.89,13.29,85.14,13.29s62.48-4.72,85.14-13.29c10.53-3.98,19.07-8.74,24.69-13.77,5.23-4.67,7.87-9.41,7.87-14.1s-2.65-9.43-7.87-14.1c-5.62-5.03-14.16-9.79-24.69-13.77-22.66-8.57-52.89-13.29-85.14-13.29Z"
    style="fill: #00bff3;"
  />
  <path
    d="M992.03,269.49c-3.79,0-7.86-.71-12.19-2.14-8.53-2.81-17.87-8.32-27.74-16.4-19.73-16.14-39.83-41.02-56.59-70.05-16.76-29.03-28.25-58.87-32.37-84.03-2.06-12.59-2.17-23.43-.33-32.22,2.09-10,6.61-17.06,13.44-21.01h0c6.83-3.94,15.21-4.33,24.91-1.14,8.53,2.81,17.87,8.32,27.74,16.4,19.73,16.14,39.83,41.02,56.59,70.05,16.76,29.03,28.25,58.87,32.37,84.03,2.06,12.59,2.17,23.43,.33,32.22-2.09,10-6.61,17.06-13.44,21.01-3.78,2.18-8.03,3.27-12.72,3.27Zm-113.08-221.17l2.7,4.67c-4.06,2.34-6.84,7.01-8.27,13.87-1.54,7.38-1.4,17.16,.42,28.27,3.91,23.9,14.94,52.45,31.06,80.38,16.12,27.93,35.33,51.75,54.08,67.09,8.71,7.13,17.11,12.14,24.27,14.5,6.66,2.19,12.09,2.11,16.15-.23,4.06-2.34,6.84-7.01,8.27-13.87,1.54-7.38,1.4-17.16-.42-28.27-3.91-23.9-14.94-52.45-31.06-80.38-16.12-27.93-35.33-51.75-54.08-67.09-8.72-7.13-17.11-12.14-24.27-14.5-6.66-2.19-12.09-2.11-16.15,.23l-2.7-4.67Z"
    style="fill: #00bff3;"
  />
  <circle cx="940.5" cy="154.93" r="29.41" style="fill: #17bef0;" />
  <line
    id="text-cursor"
    x1="763"
    y1="62"
    x2="763"
    y2="248"
    style="
      fill: none;
      stroke: #494949;
      stroke-miterlimit: 10;
      stroke-width: 15px;
    "
  />
</svg>
